<svg width="54" height="55" viewBox="0 0 54 55" fill="none" xmlns="http://www.w3.org/2000/svg">
<g clip-path="url(#clip0_616_2941)">
<path d="M8.83301 23.6667C8.83301 18.7032 8.83301 16.2215 9.48559 14.2131C10.8045 10.1539 13.9869 6.97148 18.0461 5.65258C20.0545 5 22.5363 5 27.4997 5V5C32.4631 5 34.9448 5 36.9532 5.65258C41.0124 6.97148 44.1949 10.1539 45.5138 14.2131C46.1663 16.2215 46.1663 18.7032 46.1663 23.6667V34.1283C46.1663 42.9949 46.1663 47.4282 44.3972 48.8688C43.4186 49.6657 42.1655 50.0451 40.9091 49.9249C38.638 49.7075 36.1789 46.0188 31.2606 38.6414V38.6414C29.882 36.5735 29.1927 35.5395 28.287 35.2596C27.7741 35.1011 27.2252 35.1011 26.7123 35.2596C25.8067 35.5395 25.1174 36.5735 23.7388 38.6414V38.6414C18.8205 46.0188 16.3613 49.7075 14.0902 49.9249C12.8339 50.0451 11.5808 49.6657 10.6021 48.8688C8.83301 47.4282 8.83301 42.9949 8.83301 34.1283V23.6667Z" stroke="#1A98D3" stroke-width="4" stroke-linejoin="round"/>
</g>
<defs>
<clipPath id="clip0_616_2941">
<rect width="53" height="55" fill="white" transform="translate(0.5)"/>
</clipPath>
</defs>
</svg>
