<svg width="6" height="6" viewBox="0 0 6 6" fill="none" xmlns="http://www.w3.org/2000/svg">
<path d="M0.704834 2.71729L1.04175 1.67725C1.81812 1.95068 2.38208 2.1875 2.73364 2.3877C2.64087 1.50391 2.59204 0.895996 2.58716 0.563965H3.64917C3.63452 1.04736 3.57837 1.65283 3.48071 2.38037C3.98364 2.12646 4.55981 1.89209 5.20923 1.67725L5.54614 2.71729C4.92603 2.92236 4.31812 3.05908 3.72241 3.12744C4.02026 3.38623 4.44019 3.84766 4.98218 4.51172L4.10327 5.13428C3.82007 4.74854 3.4856 4.22363 3.09985 3.55957C2.73853 4.24805 2.42114 4.77295 2.14771 5.13428L1.28345 4.51172C1.84985 3.81348 2.25513 3.35205 2.49927 3.12744C1.86938 3.00537 1.27124 2.86865 0.704834 2.71729Z" fill="#FF0000"/>
</svg>
