<svg width="25" height="25" viewBox="0 0 25 25" fill="none" xmlns="http://www.w3.org/2000/svg">
<circle cx="12.5" cy="12.5" r="12.5" fill="white"/>
<path d="M13.8043 8.41232V20H11.1739V8.41232H13.8043ZM11 5.37082C11 4.97813 11.1304 4.65328 11.3913 4.39625C11.6594 4.13208 12.029 4 12.5 4C12.9638 4 13.3297 4.13208 13.5978 4.39625C13.8659 4.65328 14 4.97813 14 5.37082C14 5.75636 13.8659 6.07764 13.5978 6.33467C13.3297 6.5917 12.9638 6.72021 12.5 6.72021C12.029 6.72021 11.6594 6.5917 11.3913 6.33467C11.1304 6.07764 11 5.75636 11 5.37082Z" fill="#3EA9DA"/>
</svg>
