<svg width="25" height="25" viewBox="0 0 25 25" fill="none" xmlns="http://www.w3.org/2000/svg">
<circle cx="12.5" cy="12.5" r="12.5" fill="white"/>
<path d="M5.375 12.5H12.5V13.6875H5.375V12.5ZM4.1875 9.53125H10.125V10.7188H4.1875V9.53125Z" fill="#3EA9DA"/>
<path d="M20.7645 12.8598L18.9833 8.70356C18.9376 8.59673 18.8615 8.50569 18.7645 8.44172C18.6675 8.37775 18.5538 8.34369 18.4376 8.34375H16.6564V7.15625C16.6564 6.99878 16.5938 6.84776 16.4825 6.73641C16.3711 6.62506 16.2201 6.5625 16.0626 6.5625H6.56261V7.75H15.4689V15.2051C15.1983 15.3622 14.9615 15.5713 14.7722 15.8204C14.5828 16.0695 14.4447 16.3535 14.3657 16.6562H10.6345C10.49 16.0965 10.1463 15.6088 9.66792 15.2843C9.18948 14.9599 8.60915 14.8211 8.0357 14.8939C7.46225 14.9668 6.93505 15.2462 6.55292 15.68C6.17079 16.1137 5.95996 16.6719 5.95996 17.25C5.95996 17.8281 6.17079 18.3863 6.55292 18.82C6.93505 19.2538 7.46225 19.5332 8.0357 19.6061C8.60915 19.6789 9.18948 19.5401 9.66792 19.2157C10.1463 18.8912 10.49 18.4035 10.6345 17.8438H14.3657C14.4948 18.3533 14.7902 18.8053 15.2051 19.1281C15.62 19.451 16.1307 19.6263 16.6564 19.6263C17.1821 19.6263 17.6927 19.451 18.1076 19.1281C18.5225 18.8053 18.8179 18.3533 18.947 17.8438H20.2189C20.3763 17.8438 20.5274 17.7812 20.6387 17.6698C20.7501 17.5585 20.8126 17.4075 20.8126 17.25V13.0938C20.8126 13.0133 20.7963 12.9337 20.7645 12.8598ZM8.34386 18.4375C8.10899 18.4375 7.8794 18.3679 7.68412 18.2374C7.48883 18.1069 7.33663 17.9214 7.24675 17.7044C7.15687 17.4874 7.13335 17.2487 7.17917 17.0183C7.22499 16.788 7.33809 16.5764 7.50417 16.4103C7.67024 16.2442 7.88184 16.1311 8.11219 16.0853C8.34254 16.0395 8.58131 16.063 8.79829 16.1529C9.01528 16.2428 9.20074 16.395 9.33123 16.5903C9.46171 16.7855 9.53136 17.0151 9.53136 17.25C9.53104 17.5648 9.40583 17.8667 9.1832 18.0893C8.96057 18.312 8.65871 18.4372 8.34386 18.4375ZM16.6564 9.53125H18.0457L19.3187 12.5H16.6564V9.53125ZM16.6564 18.4375C16.4215 18.4375 16.1919 18.3679 15.9966 18.2374C15.8013 18.1069 15.6491 17.9214 15.5593 17.7044C15.4694 17.4874 15.4459 17.2487 15.4917 17.0183C15.5375 16.788 15.6506 16.5764 15.8167 16.4103C15.9827 16.2442 16.1943 16.1311 16.4247 16.0853C16.655 16.0395 16.8938 16.063 17.1108 16.1529C17.3278 16.2428 17.5132 16.395 17.6437 16.5903C17.7742 16.7855 17.8439 17.0151 17.8439 17.25C17.8435 17.5648 17.7183 17.8667 17.4957 18.0893C17.2731 18.312 16.9712 18.4372 16.6564 18.4375ZM19.6251 16.6562H18.947C18.8163 16.1477 18.5204 15.6969 18.1058 15.3745C17.6913 15.0521 17.1815 14.8765 16.6564 14.875V13.6875H19.6251V16.6562Z" fill="#3EA9DA"/>
</svg>
