<svg width="26" height="26" viewBox="0 0 26 26" fill="none" xmlns="http://www.w3.org/2000/svg">
<path d="M6.40631 16.6843C6.28386 16.8608 6.15127 17.0281 6.0094 17.185L5.63556 17.7066C5.58346 17.5394 5.5684 17.3603 5.59171 17.185V9.1004C5.57395 8.91584 5.59126 8.72912 5.64248 8.55273C5.77223 8.66259 5.89414 8.7838 6.00709 8.91524C6.07843 8.96422 6.14298 9.02486 6.19863 9.09518L6.48246 9.35598L6.71323 9.5933C6.78477 9.6585 6.854 9.7263 6.92323 9.79411L7.23245 10.0914C7.27235 10.1155 7.30764 10.1483 7.3363 10.1879C7.46553 10.3183 7.59475 10.4487 7.72398 10.5687C7.73722 10.5725 7.74942 10.58 7.75948 10.5905C7.76955 10.6009 7.77717 10.6141 7.78167 10.6286C7.94276 10.7693 8.09684 10.9199 8.2432 11.0798L9.16626 11.9743C9.18127 11.9791 9.19512 11.9877 9.20672 11.9994C9.21833 12.0112 9.22738 12.0258 9.23319 12.0421C9.34165 12.1439 9.4478 12.256 9.56549 12.3499C9.68318 12.4438 9.66702 12.4698 9.57933 12.5507C9.54187 12.5874 9.50713 12.6275 9.47549 12.6707C9.38272 12.8322 9.27935 12.9856 9.16626 13.1297L9.10626 13.2001C8.85604 13.5538 8.58872 13.8916 8.30551 14.2119C8.1832 14.345 8.09551 14.5301 7.9732 14.6762C7.91551 14.7518 7.85783 14.8274 7.79783 14.9004C7.73783 14.9735 7.63629 15.1091 7.55552 15.2108C7.47475 15.3125 7.41475 15.3933 7.34552 15.4716C7.27629 15.5498 7.24399 15.6046 7.19091 15.6698C7.09399 15.7976 6.99707 15.9306 6.90015 16.0427L6.794 16.1809L6.45246 16.6191L6.40631 16.6843Z" fill="white"/>
<path d="M6.91588 8.36935L6.62036 8.12485C6.80362 8.07263 6.99562 8.05848 7.18454 8.08329H18.5415C18.7303 8.06143 18.9216 8.0747 19.1057 8.12241L18.7417 8.43536C18.7053 8.48868 18.6556 8.53164 18.5976 8.56005C18.4609 8.67252 18.307 8.77765 18.1824 8.89501C18.0579 9.01236 17.8576 9.19084 17.694 9.33754C17.5303 9.48424 17.3325 9.65049 17.1518 9.80697L16.6804 10.1957L16.6022 10.2617L16.1797 10.6211L16.0185 10.7629L15.7059 11.0294C15.6447 11.0986 15.5739 11.1587 15.4959 11.2079C15.4169 11.2931 15.3274 11.3678 15.2296 11.4304C15.1458 11.5226 15.0516 11.6046 14.9488 11.6749L14.7534 11.8387C14.4701 12.1003 14.1794 12.3497 13.8766 12.5893L13.8106 12.6504L13.3686 13.0343L13.2098 13.1663L12.9167 13.4108C12.8752 13.4695 12.8386 13.4499 12.7922 13.4108C12.6774 13.3032 12.5479 13.1981 12.438 13.093L12.3574 13.027L11.9032 12.6407L11.0459 11.9072L10.4573 11.3913C10.3998 11.3622 10.3503 11.3194 10.3132 11.2666C10.1939 11.1827 10.0834 11.0869 9.98348 10.9805C9.88353 10.918 9.79236 10.8423 9.71238 10.7556L9.49989 10.5747L9.20925 10.3302L9.01631 10.1664L8.60844 9.81919L8.54005 9.75807C8.2372 9.51847 7.94412 9.26664 7.6608 9.00258L7.50449 8.873C7.38982 8.79069 7.28348 8.69734 7.18699 8.59428C7.08895 8.52909 6.99807 8.45369 6.91588 8.36935Z" fill="white"/>
<path d="M19.1963 18.1174C19.1295 18.1477 19.0572 18.1643 18.9838 18.1663C18.8368 18.1796 18.6888 18.1796 18.5418 18.1663H7.18239C6.96005 18.1902 6.73518 18.1703 6.52051 18.1076L6.80382 17.7922C6.90749 17.6554 7.0227 17.5278 7.14819 17.4108L7.23856 17.2959C7.63422 16.8338 8.02744 16.3717 8.4402 15.9292L8.57208 15.7727C8.66489 15.6675 8.75771 15.56 8.85296 15.4548C8.91831 15.3658 8.9928 15.2838 9.07521 15.2103L9.26327 14.9952C9.34935 14.8806 9.44493 14.7734 9.54902 14.6749L9.67603 14.5233C9.77919 14.3846 9.89531 14.2561 10.0228 14.1395C10.0228 14.0955 10.0644 14.0759 10.0937 14.049L10.4942 13.5918C10.5846 13.4842 10.6749 13.3766 10.7678 13.2715C10.8923 13.1297 10.8923 13.1297 11.0291 13.2715C11.1517 13.3551 11.2662 13.4501 11.371 13.5551L11.5127 13.6798C11.828 13.9246 12.1281 14.1883 12.4115 14.4695C12.5346 14.5797 12.6893 14.6482 12.8535 14.6651C13.1808 14.6358 13.342 14.362 13.5862 14.1908C13.6546 14.1444 13.7157 14.0881 13.7816 14.0343C13.9347 13.8839 14.0979 13.7443 14.2701 13.6162L14.2994 13.5869L14.7415 13.2055C14.7879 13.137 14.8343 13.1297 14.8782 13.2055C14.994 13.3212 15.1009 13.4455 15.1982 13.5771L15.2861 13.6774C15.3892 13.7683 15.4833 13.869 15.567 13.9781L15.7624 14.203C15.8428 14.2763 15.9149 14.3583 15.9773 14.4475C16.0603 14.5204 16.1349 14.6024 16.1995 14.692C16.2742 14.7533 16.3378 14.8269 16.3876 14.9096C16.5009 15.0193 16.6062 15.137 16.7027 15.2617C16.7448 15.2931 16.7777 15.3354 16.7979 15.3839C16.9347 15.5233 17.0422 15.6993 17.174 15.8265C17.3816 16.0245 17.5477 16.2519 17.748 16.4524C17.8701 16.5795 17.9776 16.7213 18.0924 16.8558L18.5271 17.3448L18.9203 17.7824C18.9423 17.8069 18.9618 17.8338 18.9814 17.8582L19.0009 17.8875C19.0813 17.9498 19.1478 18.028 19.1963 18.1174Z" fill="white"/>
<path d="M19.9268 16.8826C19.9505 17.0468 19.9354 17.2143 19.8829 17.3716L19.5165 16.9364L19.4237 16.8288C19.307 16.7165 19.2007 16.5937 19.1062 16.4621L18.9523 16.2909L18.6935 16L18.5103 15.7873L18.266 15.5012C18.1903 15.4181 18.1171 15.3325 18.0438 15.2567L17.8533 15.0367C17.4625 14.5942 17.0717 14.1541 16.6858 13.7091C16.5055 13.5208 16.3359 13.3224 16.1778 13.115C16.0244 12.9671 15.8816 12.8086 15.7504 12.6407L15.7016 12.5795C15.6601 12.5306 15.5355 12.4964 15.6698 12.4157L15.9702 12.1517C16.0303 12.087 16.0985 12.0303 16.173 11.983L17.5211 10.8216L17.6603 10.6994C17.7651 10.5935 17.8796 10.4978 18.0023 10.4133C18.0779 10.3318 18.1623 10.2588 18.2538 10.1957C18.3154 10.1237 18.3879 10.0618 18.4688 10.0123L18.757 9.76785L18.9792 9.57715L19.856 8.81921C19.9224 8.9791 19.9451 9.15375 19.922 9.32532L19.9268 16.8826Z" fill="white"/>
<path d="M12.8633 0.416016C10.3514 0.416016 7.89599 1.16166 5.80745 2.55866C3.71891 3.95565 2.09109 5.94126 1.12984 8.26438C0.16859 10.5875 -0.0829185 13.1438 0.407122 15.61C0.897163 18.0762 2.10674 20.3416 3.8829 22.1196C5.65906 23.8977 7.92202 25.1085 10.3856 25.5991C12.8492 26.0896 15.4028 25.8379 17.7235 24.8756C20.0441 23.9133 22.0276 22.2838 23.4232 20.193C24.8187 18.1023 25.5635 15.6442 25.5635 13.1297C25.5635 9.75781 24.2255 6.52404 21.8437 4.13976C19.462 1.75549 16.2316 0.416016 12.8633 0.416016ZM20.9402 16.8851V17.357C20.9157 17.4817 20.8938 17.6015 20.8693 17.7311L20.8351 17.8264L20.6544 18.2274L20.3711 18.5868L20.2123 18.731L19.8777 18.9584L19.4943 19.1124L19.018 19.1907H7.18241C6.82077 19.2188 6.45716 19.1747 6.11266 19.0611C5.99543 19.0122 5.86842 18.956 5.7634 18.9046L5.51916 18.7335L5.29447 18.5183L5.13327 18.3032C4.95029 18.0172 4.83347 17.6939 4.79135 17.357V16.8827V9.30336L4.81333 8.83393C4.83287 8.73125 4.84996 8.62611 4.8695 8.52098C4.89748 8.47041 4.91492 8.41468 4.92079 8.35717L5.14793 7.92931L5.36774 7.66525L5.58511 7.47699L5.8611 7.29362L6.24454 7.13715L6.7208 7.05891H19.0254L19.1792 7.07113C19.187 7.08065 19.1974 7.0876 19.2092 7.09109C19.221 7.09458 19.2335 7.09444 19.2452 7.09069L19.4894 7.13715L19.9657 7.34741C20.0023 7.36942 20.0292 7.41098 20.078 7.41587L20.4346 7.75083C20.4616 7.81169 20.5036 7.86468 20.5567 7.90486C20.7539 8.18846 20.8796 8.51561 20.9231 8.85838L20.945 9.32537L20.9402 16.8851Z" fill="white"/>
</svg>
