<svg width="27" height="27" viewBox="0 0 27 27" fill="none" xmlns="http://www.w3.org/2000/svg">
<path d="M6.95956 26.614C6.74801 26.614 6.53647 26.614 6.32493 26.614C6.07962 26.614 5.83379 26.614 5.58848 26.614C5.37694 26.614 5.1654 26.614 4.95385 26.614C4.70855 26.614 4.46271 26.614 4.21741 26.614C3.98846 26.614 3.75898 26.6135 3.53002 26.6135C3.30213 26.6135 3.07423 26.614 2.84633 26.614C2.61738 26.614 2.3879 26.614 2.15895 26.614C1.91364 26.6135 1.66781 26.6135 1.42251 26.6129C0.977262 26.5233 0.789458 26.3012 0.789458 25.8501C0.788931 17.8052 0.788931 9.76018 0.789458 1.71521C0.789458 1.22882 1.04742 0.968212 1.53593 0.967685C3.31901 0.965575 5.10262 0.967685 6.8857 0.969267C7.37473 0.969795 7.62637 1.22354 7.6327 1.71468C7.63428 1.83707 7.64114 1.95946 7.64588 2.08185C7.64588 2.31027 7.64588 2.53817 7.64588 2.76659C7.62531 3.0177 7.62109 3.26828 7.64747 3.51939C7.64694 3.72513 7.64641 3.9314 7.64588 4.13714C7.62267 4.34816 7.62478 4.55917 7.6443 4.77019C7.6443 5.05137 7.6443 5.33254 7.6443 5.61319C7.6443 5.82421 7.6443 6.03523 7.64483 6.24624C7.64588 6.79013 7.64694 7.33403 7.64747 7.87792C7.63533 7.94861 7.60843 8.02088 7.67279 8.08735C7.70866 8.01825 7.74242 7.95389 7.77619 7.88953C7.81206 7.8009 7.84793 7.71227 7.8838 7.62312C8.0025 7.40208 8.10326 7.17313 8.16973 6.93099C8.39499 6.46886 8.59018 5.99355 8.77271 5.51349C8.8645 5.30036 8.95629 5.08671 9.04861 4.87358C9.07499 4.805 9.10084 4.7359 9.12721 4.66732C9.23272 4.50642 9.29497 4.32705 9.35247 4.14558C9.46062 3.96886 9.48489 3.76417 9.54977 3.57267C9.59778 3.56845 9.62468 3.5426 9.64262 3.49724C9.83412 3.02456 10.0272 2.55294 10.2203 2.08079C10.2936 1.9468 10.3748 1.81913 10.4935 1.71996C10.6956 1.61867 10.9061 1.59493 11.1245 1.65454C11.336 1.77218 11.5576 1.86503 11.7892 1.93414C11.9105 2.01485 12.0424 2.07024 12.1859 2.09873C12.2777 2.16942 12.3827 2.21162 12.495 2.23483C12.7319 2.36039 12.9772 2.46537 13.2331 2.54714C13.6772 2.76079 14.1304 2.95281 14.5941 3.11899C14.8162 3.2361 15.0436 3.33897 15.2862 3.40544C15.3622 3.4698 15.4514 3.50198 15.5484 3.51412C15.693 3.61488 15.8586 3.66869 16.0237 3.72355C16.1741 3.83539 16.3017 3.96622 16.3798 4.13978C16.4284 4.40355 16.3065 4.63408 16.2363 4.87464C16.0206 5.32199 15.8275 5.77884 15.6581 6.24571C15.5442 6.44565 15.4514 6.65456 15.3902 6.87665C15.3094 6.98796 15.2641 7.11404 15.2356 7.24698C14.9797 7.73707 14.7903 8.25511 14.5846 8.7663C14.5192 8.84437 14.478 8.93089 14.4849 9.03587C14.3657 9.23264 14.2813 9.44471 14.2164 9.6647C14.0966 9.9348 13.9764 10.2054 13.8566 10.4761C13.836 10.523 13.8049 10.5747 13.8661 10.6137C13.9236 10.6501 13.9647 10.61 14.0017 10.5715C14.237 10.3257 14.5023 10.1089 14.7112 9.83773C14.7888 9.80713 14.8399 9.74963 14.8763 9.6763C15.0351 9.55813 15.1728 9.41886 15.2931 9.26218C15.3849 9.2089 15.4572 9.13557 15.512 9.04536C16.1577 8.43078 16.7892 7.80248 17.4032 7.15625C17.4718 7.11826 17.5288 7.0692 17.5594 6.99482C17.7372 6.8566 17.8965 6.69993 18.0347 6.52214C18.1455 6.45198 18.2341 6.36019 18.3053 6.25099C18.461 6.12702 18.6108 5.99302 18.8186 5.9619C19.0428 5.95768 19.2328 6.04578 19.4042 6.18241C19.4237 6.20246 19.4432 6.22303 19.4633 6.24308C19.8964 6.71944 20.3522 7.17366 20.8265 7.60888L20.8312 7.61362C21.0491 7.86895 21.2854 8.10582 21.5407 8.32369C21.5455 8.31894 21.5502 8.31419 21.555 8.30892C21.5502 8.31367 21.5455 8.31842 21.5407 8.32316C21.7412 8.56108 21.9607 8.78054 22.1975 8.98206L22.2002 8.9847C22.4212 9.23581 22.6502 9.479 22.9129 9.68843L22.9155 9.69107C23.087 9.92319 23.3439 10.1173 23.2574 10.4634C23.2473 10.6681 23.0938 10.792 22.9878 10.9429C22.9181 10.9762 22.868 11.0289 22.8343 11.0975C22.6222 11.2747 22.4275 11.4689 22.2492 11.6799C22.1791 11.7131 22.1274 11.7654 22.092 11.8339C21.9158 11.9758 21.7591 12.1362 21.6162 12.3108C21.546 12.3451 21.4959 12.3979 21.4621 12.4675C21.2506 12.6448 21.0565 12.8389 20.8792 13.0504C20.2683 13.6524 19.6569 14.2543 19.046 14.8562C18.8308 15.0683 18.6161 15.2819 18.3845 15.5114C18.5074 15.5267 18.587 15.5267 18.6841 15.4908C19.4781 15.1944 20.2794 14.9169 21.0744 14.623C21.7301 14.3809 22.399 14.1736 23.0384 13.8866C23.2257 13.8481 23.403 13.7811 23.5728 13.6935C23.826 13.6255 24.0703 13.5342 24.3082 13.425C24.5461 13.3991 24.7545 13.4704 24.9413 13.6149C24.9898 13.6898 25.0378 13.7647 25.0863 13.8396C25.1454 14.0786 25.2372 14.306 25.338 14.5302C25.501 15.015 25.6661 15.4998 25.8729 15.9683C25.9351 16.2151 26.018 16.4547 26.1377 16.6804C26.1256 16.7385 26.1419 16.7859 26.1889 16.8223C26.2121 16.979 26.2707 17.123 26.345 17.2613C26.4041 17.5198 26.5017 17.7651 26.6146 18.004C26.6689 18.2451 26.7676 18.4704 26.8615 18.6977C26.9533 18.9177 26.957 19.1393 26.8689 19.3614C26.7444 19.5476 26.5529 19.641 26.3582 19.7301C25.4857 20.015 24.6237 20.3289 23.7759 20.6824C23.7163 20.6787 23.663 20.6934 23.6192 20.7367C22.9519 20.9466 22.2956 21.1861 21.6484 21.451C21.6204 21.4626 21.5919 21.4737 21.5639 21.4853C21.2801 21.5549 21.01 21.662 20.7442 21.7812C20.5574 21.8498 20.3707 21.9178 20.1844 21.9864C20.1301 22.0007 20.0684 21.9954 20.0309 22.0503C19.8294 22.0983 19.6337 22.1626 19.4517 22.2634C18.97 22.4195 18.4873 22.5715 18.0273 22.7862C17.8089 22.8368 17.5963 22.9049 17.3985 23.0125C16.929 23.1502 16.4711 23.32 16.0206 23.5084C15.771 23.5896 15.5194 23.6672 15.2852 23.7885C14.8178 23.932 14.3578 24.0945 13.9094 24.2902C13.6757 24.3509 13.4478 24.4268 13.2331 24.5397C12.762 24.6716 12.3088 24.8525 11.8556 25.0335C11.6045 25.1126 11.354 25.1939 11.1176 25.3126C10.6518 25.4561 10.196 25.6249 9.74707 25.8143C9.39046 25.9219 9.03753 26.0379 8.70096 26.1988C8.58912 26.2083 8.48731 26.2458 8.39446 26.3075L8.38022 26.3144C8.14019 26.3698 7.91388 26.4642 7.68809 26.5602C7.44911 26.634 7.19906 26.5502 6.95956 26.614ZM13.7585 10.7778C13.8081 10.7773 13.8408 10.7551 13.8381 10.7034C13.8376 10.6918 13.7996 10.6697 13.7912 10.6744C13.7469 10.6992 13.7453 10.7403 13.7638 10.7841C13.7516 10.7862 13.739 10.7878 13.7268 10.7899C13.7326 10.7994 13.7384 10.8089 13.7437 10.819C13.749 10.8047 13.7537 10.791 13.7585 10.7778ZM16.0169 10.4001C15.7895 10.5969 15.5748 10.8063 15.3817 11.0379C15.3332 11.0542 15.3 11.0859 15.2836 11.1344C15.052 11.3275 14.8394 11.539 14.6458 11.7706C14.3968 11.9816 14.1705 12.2148 13.9558 12.4601C13.941 12.4749 13.9262 12.4897 13.912 12.5044C13.682 12.7017 13.4625 12.9096 13.2716 13.1459C13.2568 13.1607 13.242 13.1755 13.2272 13.1902C12.9909 13.3812 12.782 13.6001 12.5847 13.8301C12.5699 13.8449 12.5557 13.8592 12.5409 13.8739C12.2851 14.0385 12.2444 14.326 12.1374 14.5761C12.0508 14.7834 11.9638 14.9907 11.8773 15.1981C11.68 15.6581 11.4832 16.1186 11.2859 16.5786C11.0918 17.0529 10.8971 17.5271 10.703 18.0019C10.4798 18.4461 10.2878 18.9035 10.1222 19.3725C9.99765 19.5867 9.9085 19.8161 9.83412 20.0514C9.60411 20.5162 9.41631 20.9983 9.23114 21.4816C9.00588 21.9252 8.82441 22.3868 8.65348 22.8532C8.52688 23.128 8.39974 23.4034 8.27313 23.6782C8.29687 23.6978 8.32008 23.7168 8.34382 23.7363C8.61708 23.4583 8.89035 23.1808 9.16414 22.9028C9.1768 22.8896 9.18946 22.8759 9.2016 22.8627C9.67691 22.4554 10.0668 21.9632 10.5162 21.5301C10.6027 21.4573 10.6951 21.3903 10.7752 21.3107C11.4447 20.6454 12.112 19.9786 12.7794 19.3118C15.7167 16.3782 18.653 13.4435 21.593 10.5125C21.7285 10.3774 21.7396 10.2909 21.5634 10.2038C21.4057 10.0087 21.23 9.83087 21.0338 9.67419C20.9842 9.58451 20.913 9.51646 20.8254 9.46476C20.7041 9.30439 20.5606 9.16617 20.4044 9.04009C19.9381 8.56636 19.4712 8.09316 19.0059 7.61784C18.9373 7.54768 18.8856 7.50495 18.7975 7.59991C18.5776 7.83625 18.3491 8.0652 18.1244 8.29679C18.1091 8.31156 18.0938 8.32686 18.079 8.34163C17.8274 8.54948 17.6037 8.78529 17.389 9.03007C17.1616 9.22684 16.9443 9.43363 16.7533 9.66681C16.7037 9.68263 16.671 9.71534 16.6552 9.7644C16.421 9.95484 16.2126 10.1711 16.0169 10.4001ZM20.1391 16.3555C19.9708 16.3824 19.812 16.4372 19.6674 16.5285C19.5888 16.5253 19.5218 16.5586 19.457 16.5976C19.2196 16.6599 18.9901 16.7432 18.769 16.8503C18.5148 16.9152 18.2721 17.0133 18.0326 17.1188C17.9039 17.1542 17.7736 17.1842 17.6623 17.2644C17.5652 17.2744 17.4739 17.3003 17.3953 17.3615C17.0039 17.4971 16.613 17.6348 16.2205 17.7677C16.0913 17.8115 15.9921 17.8853 15.9251 18.003C15.6851 18.2024 15.4698 18.4266 15.2609 18.6571C15.0488 18.8502 14.8399 19.0475 14.6579 19.2696C14.5878 19.3039 14.5334 19.354 14.5007 19.4263C14.0507 19.8388 13.6166 20.2667 13.2072 20.7198C13.1544 20.7652 13.0985 20.8069 13.0495 20.8559C12.1933 21.7095 11.3387 22.5641 10.4819 23.4176C10.1781 23.7204 9.87052 24.0196 9.56666 24.3218C9.52709 24.3609 9.44954 24.4004 9.50019 24.4685C9.52973 24.5081 9.59356 24.4949 9.64631 24.4738C9.92644 24.363 10.2081 24.2554 10.4893 24.1467C10.5679 24.1383 10.6439 24.124 10.7019 24.0628C10.781 24.0665 10.847 24.0317 10.9114 23.9921C10.991 23.9863 11.0649 23.9668 11.125 23.9098C11.6125 23.7685 12.083 23.5812 12.5499 23.3844C13.0062 23.2114 13.4826 23.0921 13.9262 22.8838C14.1768 22.8162 14.4221 22.7334 14.6553 22.6174C15.1216 22.4744 15.5827 22.3161 16.028 22.1146C16.249 22.0687 16.4526 21.9759 16.6594 21.8899C17.12 21.7274 17.5874 21.5823 18.0315 21.3761C18.2879 21.3159 18.5322 21.2236 18.769 21.1102C19.2539 20.963 19.7308 20.7942 20.195 20.5895C20.4155 20.5431 20.6202 20.4539 20.8254 20.3642C21.0427 20.2962 21.2622 20.2324 21.4627 20.1205C21.5006 20.1094 21.5381 20.0978 21.5761 20.0868C21.7882 20.0203 22.0023 19.9596 22.1981 19.8499C22.5077 19.7718 22.8042 19.6589 23.0933 19.5239C23.1919 19.5191 23.2811 19.4901 23.3581 19.4258C23.4362 19.4258 23.5042 19.3978 23.5675 19.3545C24.1663 19.1414 24.7645 18.9267 25.3638 18.7157C25.4598 18.6819 25.4788 18.6413 25.4382 18.5437C25.3047 18.2235 25.215 17.8859 25.0552 17.5757C25.0478 17.4781 25.013 17.39 24.9613 17.3077C24.7371 16.6208 24.4918 15.9419 24.2206 15.2719C24.2117 15.2508 24.2022 15.2292 24.1932 15.2081C24.112 14.8768 24.1114 14.8757 23.7949 14.995C23.5079 15.1031 23.222 15.2134 22.935 15.3226C22.6855 15.4138 22.4365 15.5056 22.187 15.5969C21.7291 15.753 21.2685 15.9034 20.8265 16.1033C20.5875 16.1613 20.3569 16.2405 20.1391 16.3555ZM5.58848 25.3173C5.81638 25.3173 6.04428 25.3173 6.27217 25.3173C6.39562 25.3141 6.34603 25.2181 6.34761 25.1617C6.35447 24.9159 6.35341 24.67 6.35341 24.4242C6.35236 17.2697 6.35183 10.1152 6.34867 2.96073C6.34867 2.7265 6.45787 2.39626 6.3033 2.28284C6.14293 2.1652 5.8322 2.25383 5.5869 2.25172C5.37641 2.25172 5.16645 2.25172 4.95596 2.25172C4.70907 2.25172 4.46271 2.25172 4.21582 2.25172C4.00534 2.25172 3.79485 2.25119 3.58489 2.25119C3.33853 2.25119 3.09164 2.25172 2.84528 2.25172C2.61738 2.25172 2.38948 2.25172 2.16159 2.25224C1.98064 2.28759 2.07138 2.43161 2.07138 2.51865C2.0661 9.89734 2.06663 17.276 2.06663 24.6542C2.06663 25.3627 2.0661 25.3627 2.79463 25.3163C3.05788 25.3163 3.32059 25.3168 3.58383 25.3168C3.79538 25.3168 4.00692 25.3173 4.21846 25.3173C4.46377 25.3173 4.70907 25.3173 4.95491 25.3173C5.1654 25.3173 5.37694 25.3173 5.58848 25.3173ZM10.4255 4.97646C10.3226 5.13788 10.2583 5.31619 10.2002 5.49714C10.0863 5.72187 9.98236 5.95082 9.91219 6.19349C9.81671 6.35861 9.73705 6.53006 9.69326 6.71681C9.65053 6.75321 9.63471 6.80016 9.63629 6.85502C9.50599 7.09716 9.39784 7.34827 9.31924 7.61151C9.08976 8.07628 8.88982 8.5537 8.70993 9.03956C8.59704 9.24108 8.5063 9.45104 8.44458 9.67366C8.23304 10.1221 8.03785 10.5773 7.86745 11.0426C7.76458 11.28 7.5868 11.4953 7.64747 11.7817C7.64694 12.0275 7.64641 12.2734 7.64588 12.5192C7.64588 12.7128 7.64588 12.9059 7.64588 13.0995C7.64588 13.3807 7.64588 13.6619 7.64588 13.9425C7.64588 14.1182 7.64588 14.2944 7.64588 14.47C7.64641 14.7159 7.64694 14.9617 7.64747 15.2076C7.62426 15.4186 7.62637 15.6296 7.64588 15.8406C7.64588 16.1218 7.64588 16.403 7.64588 16.6836C7.62637 16.8946 7.62373 17.1056 7.64747 17.3167C7.64694 17.5625 7.64641 17.8083 7.64588 18.0542C7.64588 18.2478 7.64588 18.4408 7.64588 18.6344C7.64641 18.8803 7.64641 19.1261 7.64694 19.3719C7.62531 19.6183 7.6232 19.8641 7.64799 20.1105C7.6443 20.5573 7.63903 21.0036 7.63692 21.4504C7.63639 21.5064 7.6137 21.5834 7.70339 21.5971C7.7899 21.6103 7.80204 21.548 7.8052 21.4816C7.93603 21.2463 8.03943 20.9994 8.11698 20.742C8.22037 20.57 8.29476 20.3853 8.34804 20.1917C8.59493 19.7075 8.78326 19.1984 8.989 18.6972C9.17311 18.2546 9.35775 17.8115 9.54186 17.3689C9.66425 17.1457 9.76132 16.912 9.83728 16.6694L9.84467 16.6514C9.95967 16.4251 10.0673 16.1962 10.1338 15.9503C10.2651 15.715 10.3701 15.4687 10.4482 15.2107C10.5141 15.1374 10.5452 15.0482 10.5626 14.9538C10.6418 14.8182 10.7056 14.6763 10.7441 14.5233C10.8607 14.3049 10.962 14.0802 11.029 13.8412C11.2648 13.3828 11.4294 12.8943 11.6267 12.42C11.8335 11.9885 12.0234 11.5491 12.1827 11.0975C12.312 10.8817 12.3985 10.6475 12.4808 10.4117C12.5409 10.3141 12.5958 10.2144 12.609 10.0978C12.6923 9.96856 12.6791 9.79816 12.7868 9.67894C12.896 9.47847 12.9872 9.27062 13.0463 9.04906C13.2626 8.61015 13.4457 8.15699 13.6182 7.69961C13.8445 7.22377 14.0565 6.7416 14.2322 6.24466C14.3799 6.02151 14.4311 5.75774 14.5382 5.51771C14.6447 5.27873 14.7487 5.0387 14.8584 4.80131C14.9069 4.69686 14.8758 4.64411 14.7729 4.6019C14.0302 4.29593 13.289 3.98626 12.5467 3.67765C12.4655 3.65286 12.3721 3.646 12.3056 3.59958C12.0165 3.39964 11.6736 3.31945 11.3661 3.16436C11.2405 3.10105 11.1809 3.13271 11.1319 3.25879C11.0195 3.55157 10.8961 3.84014 10.7768 4.13028C10.6729 4.37506 10.569 4.61984 10.4651 4.86409C10.4513 4.90207 10.4381 4.93953 10.4255 4.97646Z" fill="#1A98D3"/>
<path d="M3.8386 23.3722C3.63951 23.3427 3.45357 23.2779 3.285 23.1656C3.23898 23.113 3.19297 23.0605 3.14695 23.0079C3.04693 22.8407 2.9718 22.667 3.00139 22.4655C3.0953 22.0068 3.37938 21.7556 3.84095 21.6992C4.29783 21.7574 4.57956 22.0044 4.66127 22.4646C4.65094 22.6773 4.59881 22.8773 4.47626 23.0548L4.49223 23.0708L4.47485 23.0558C4.30252 23.2408 4.08183 23.329 3.8386 23.3722Z" fill="#1A98D3"/>
</svg>
