<svg width="34" height="34" viewBox="0 0 34 34" fill="none" xmlns="http://www.w3.org/2000/svg">
<g clip-path="url(#clip0_616_3003)">
<path fill-rule="evenodd" clip-rule="evenodd" d="M14.8749 2.83325C12.9547 2.83342 11.0624 3.29277 9.3559 4.17299C7.64937 5.0532 6.17809 6.32876 5.06479 7.89324C3.95149 9.45771 3.22847 11.2657 2.95604 13.1665C2.68361 15.0672 2.86968 17.0055 3.49872 18.8197C4.12776 20.6339 5.18154 22.2714 6.57212 23.5955C7.96271 24.9196 9.64979 25.892 11.4926 26.4315C13.3354 26.971 15.2805 27.062 17.1656 26.6969C19.0508 26.3318 20.8213 25.5211 22.3294 24.3326L27.503 29.5063C27.7702 29.7643 28.1281 29.9071 28.4995 29.9039C28.871 29.9006 29.2263 29.7517 29.4889 29.489C29.7516 29.2263 29.9006 28.871 29.9038 28.4996C29.9071 28.1281 29.7643 27.7703 29.5062 27.5031L24.3325 22.3294C25.7322 20.5538 26.6037 18.42 26.8473 16.1722C27.0908 13.9244 26.6967 11.6534 25.7099 9.61922C24.723 7.58499 23.1835 5.86967 21.2673 4.66958C19.3511 3.46949 17.1358 2.8331 14.8749 2.83325ZM5.66654 14.8749C5.66654 12.4327 6.6367 10.0905 8.3636 8.36364C10.0905 6.63675 12.4327 5.66659 14.8749 5.66659C17.3171 5.66659 19.6593 6.63675 21.3861 8.36364C23.113 10.0905 24.0832 12.4327 24.0832 14.8749C24.0832 17.3171 23.113 19.6593 21.3861 21.3862C19.6593 23.1131 17.3171 24.0833 14.8749 24.0833C12.4327 24.0833 10.0905 23.1131 8.3636 21.3862C6.6367 19.6593 5.66654 17.3171 5.66654 14.8749Z" fill="black"/>
</g>
<defs>
<clipPath id="clip0_616_3003">
<rect width="34" height="34" fill="white"/>
</clipPath>
</defs>
</svg>
