<svg width="18" height="18" viewBox="0 0 18 18" fill="none" xmlns="http://www.w3.org/2000/svg">
<path fill-rule="evenodd" clip-rule="evenodd" d="M12.1098 0.0802969C11.9784 0.193324 11.9784 0.404332 12.1098 0.517359L12.2032 0.597656H14.5825H16.9619L13.8993 3.66504C11.7576 5.80996 10.8297 6.76202 10.8137 6.83082C10.7658 7.0367 10.9633 7.23424 11.1692 7.18632C11.238 7.17029 12.19 6.24238 14.335 4.10073L17.4023 1.03806V3.41747V5.79684L17.4826 5.89022C17.5957 6.02163 17.8067 6.02163 17.9197 5.89022L18 5.79684V3.00118V0.205523L17.8972 0.102762L17.7945 0H14.9988H12.2032L12.1098 0.0802969ZM6.76758 10.8466C6.70957 10.8768 5.29763 12.2653 3.62988 13.9321L0.597656 16.9627V14.583V12.2032L0.517359 12.1098C0.455766 12.0382 0.404824 12.0164 0.298828 12.0164C0.192832 12.0164 0.141891 12.0382 0.0802969 12.1098L0 12.2032V14.9988V17.7945L0.102762 17.8972L0.205523 18H3.00118H5.79684L5.89022 17.9197C5.96183 17.8581 5.98359 17.8072 5.98359 17.7012C5.98359 17.5952 5.96183 17.5442 5.89022 17.4826L5.79684 17.4023H3.41726H1.03767L4.08544 14.3525C5.79786 12.639 7.14941 11.2593 7.17019 11.2036C7.26754 10.9426 7.01434 10.7181 6.76758 10.8466Z" fill="white"/>
</svg>
