<svg width="25" height="24" viewBox="0 0 25 24" fill="none" xmlns="http://www.w3.org/2000/svg">
<g id="icon_resize">
<rect width="25" height="24" rx="3" fill="#1A98D3"/>
<path id="image 11 (Traced)" fill-rule="evenodd" clip-rule="evenodd" d="M16.1098 3.0803C15.9784 3.19332 15.9784 3.40433 16.1098 3.51736L16.2032 3.59766H18.5825H20.9619L17.8993 6.66504C15.7576 8.80996 14.8297 9.76202 14.8137 9.83082C14.7658 10.0367 14.9633 10.2342 15.1692 10.1863C15.238 10.1703 16.19 9.24238 18.335 7.10073L21.4023 4.03806V6.41747V8.79684L21.4826 8.89022C21.5957 9.02163 21.8067 9.02163 21.9197 8.89022L22 8.79684V6.00118V3.20552L21.8972 3.10276L21.7945 3H18.9988H16.2032L16.1098 3.0803ZM10.7676 13.8466C10.7096 13.8768 9.29763 15.2653 7.62988 16.9321L4.59766 19.9627V17.583V15.2032L4.51736 15.1098C4.45577 15.0382 4.40482 15.0164 4.29883 15.0164C4.19283 15.0164 4.14189 15.0382 4.0803 15.1098L4 15.2032V17.9988V20.7945L4.10276 20.8972L4.20552 21H7.00118H9.79684L9.89022 20.9197C9.96183 20.8581 9.98359 20.8072 9.98359 20.7012C9.98359 20.5952 9.96183 20.5442 9.89022 20.4826L9.79684 20.4023H7.41726H5.03767L8.08544 17.3525C9.79786 15.639 11.1494 14.2593 11.1702 14.2036C11.2675 13.9426 11.0143 13.7181 10.7676 13.8466Z" fill="white"/>
</g>
</svg>
