<svg width="15" height="15" viewBox="0 0 15 15" fill="none" xmlns="http://www.w3.org/2000/svg">
<path d="M2.5 12.5C2.15625 12.5 1.86188 12.3775 1.61688 12.1325C1.37188 11.8875 1.24958 11.5933 1.25 11.25V3.75C1.25 3.40625 1.3725 3.11188 1.6175 2.86688C1.8625 2.62188 2.15667 2.49958 2.5 2.5H12.5C12.8438 2.5 13.1381 2.6225 13.3831 2.8675C13.6281 3.1125 13.7504 3.40667 13.75 3.75V11.25C13.75 11.5938 13.6275 11.8881 13.3825 12.1331C13.1375 12.3781 12.8433 12.5004 12.5 12.5H2.5ZM7.5 8.125L2.5 5V11.25H12.5V5L7.5 8.125ZM7.5 6.875L12.5 3.75H2.5L7.5 6.875ZM2.5 5V3.75V11.25V5Z" fill="#4B4B4B"/>
</svg>
