<svg width="26" height="26" viewBox="0 0 26 26" fill="none" xmlns="http://www.w3.org/2000/svg">
<path d="M19.1532 10.7203C18.6897 9.42443 17.8469 8.29852 16.7346 7.48947C15.6222 6.68042 14.2921 6.22579 12.9178 6.18491C10.1848 6.14335 8.05999 7.30714 6.70693 9.69829C5.35387 12.0894 5.48576 14.4684 6.91697 16.7886C7.01389 16.9242 7.07913 17.0798 7.10788 17.244C7.13663 17.4082 7.12814 17.5768 7.08305 17.7372C6.92186 18.346 6.81195 18.9597 6.66053 19.6712C7.3395 19.4585 7.91834 19.2996 8.48008 19.0893C8.65724 19.0191 8.84823 18.991 9.03806 19.0071C9.2279 19.0232 9.41143 19.0832 9.57425 19.1822C10.8013 19.8097 12.1885 20.0531 13.5556 19.8807C14.9226 19.7083 16.2062 19.1282 17.2395 18.2157C18.2727 17.3032 19.0078 16.1006 19.3491 14.7642C19.6904 13.4279 19.6221 12.0197 19.1532 10.7227V10.7203ZM16.1833 16.439C15.5873 17.1089 14.8033 17.1407 14.0022 17.0404C13.0497 16.9206 12.2633 16.4292 11.5428 15.8351C10.4266 14.9133 9.5254 13.8302 9.05892 12.4293C8.92964 12.0515 8.87651 11.6518 8.90261 11.2533C8.8681 10.8848 8.92988 10.5137 9.08188 10.1764C9.23388 9.83904 9.47089 9.54707 9.76964 9.3291C10.3216 8.88168 10.7857 9.00881 11.0323 9.66406C11.138 10.0074 11.2627 10.3445 11.406 10.6738C11.523 10.8663 11.5598 11.0971 11.5087 11.3165C11.4575 11.536 11.3225 11.7266 11.1325 11.8474C10.8076 12.0919 10.8418 12.3364 11.0397 12.6395C11.5969 13.4665 12.2716 14.2078 13.0424 14.84C13.3037 15.0527 13.5309 15.0845 13.7946 14.8106C13.9357 14.6343 14.1367 14.5162 14.3592 14.4788C14.5818 14.4413 14.8103 14.4872 15.0012 14.6077C15.2991 14.7813 15.6313 14.8742 15.939 15.0258C16.6082 15.373 16.6864 15.8718 16.1833 16.439Z" fill="white"/>
<path d="M12.7002 0.356201C10.1884 0.356201 7.7329 1.10185 5.64436 2.49884C3.55582 3.89584 1.928 5.88144 0.966753 8.20456C0.00550281 10.5277 -0.246004 13.084 0.244037 15.5502C0.734078 18.0164 1.94366 20.2818 3.71982 22.0598C5.49597 23.8378 7.75894 25.0487 10.2225 25.5393C12.6861 26.0298 15.2397 25.778 17.5604 24.8158C19.8811 23.8535 21.8646 22.224 23.2601 20.1332C24.6556 18.0425 25.4005 15.5844 25.4005 13.0699C25.4005 9.698 24.0624 6.46423 21.6806 4.07995C19.2989 1.69567 16.0685 0.356201 12.7002 0.356201ZM17.519 19.4658C14.9399 21.4218 12.0994 21.6125 9.16615 20.2751C9.02679 20.199 8.873 20.1532 8.71479 20.1406C8.55657 20.1279 8.39746 20.1488 8.24782 20.2018C7.29531 20.5196 6.33302 20.8105 5.30235 21.1382C5.54658 20.0697 5.7493 19.0673 5.98377 18.0698C6.02339 17.9337 6.03299 17.7906 6.0119 17.6505C5.99081 17.5103 5.93955 17.3764 5.86165 17.2581C5.03595 15.9214 4.62159 14.3709 4.67024 12.8001C4.71888 11.2292 5.22838 9.70743 6.13519 8.42449C8.07198 5.71061 11.3398 4.42213 14.5711 5.24608C17.8853 6.09691 19.9736 8.2778 20.5866 11.6469C21.1654 14.8229 20.0981 17.5197 17.519 19.4658Z" fill="white"/>
</svg>
