<svg width="30" height="21" viewBox="0 0 30 21" fill="none" xmlns="http://www.w3.org/2000/svg">
<path d="M14.4106 10.9317L20.6208 5.53304C21.6052 4.67731 22.1704 3.437 22.1704 2.13269C22.1704 1.4149 21.5899 0.833008 20.8721 0.833008H11.5852H2.2983C1.5805 0.833008 1 1.4149 1 2.13269C1 3.437 1.56522 4.67731 2.54958 5.53304L8.75983 10.9317C9.13901 11.2614 9.35674 11.7392 9.35674 12.2416V19.1123C9.35674 19.4258 9.70179 19.6167 9.96741 19.4502L13.0657 17.5078C13.5311 17.216 13.8137 16.7054 13.8137 16.1561V12.2416C13.8137 11.7392 14.0314 11.2614 14.4106 10.9317Z" stroke="#009FE2" stroke-width="1.5953" stroke-linecap="round" stroke-linejoin="round"/>
<g opacity="0.8">
<path d="M26.386 17.2065L26.386 9.22951" stroke="#009FE2" stroke-width="1.11671" stroke-linecap="round"/>
<path d="M26.386 9.11959L28.9268 11.8151" stroke="#009FE2" stroke-width="1.11671" stroke-linecap="round"/>
<path d="M23.0878 9.3894L23.0878 18.0152" stroke="#009FE2" stroke-width="1.11671" stroke-linecap="round"/>
<line x1="0.558356" y1="-0.558356" x2="4.00919" y2="-0.558356" transform="matrix(-0.706024 -0.708188 -0.706024 0.708188 23.0878 18.824)" stroke="#009FE2" stroke-width="1.11671" stroke-linecap="round"/>
</g>
</svg>
