<svg width="24" height="25" viewBox="0 0 24 25" fill="none" xmlns="http://www.w3.org/2000/svg">
<path d="M18.3 6.54299C18.2075 6.45028 18.0976 6.37674 17.9766 6.32655C17.8556 6.27637 17.7259 6.25054 17.595 6.25054C17.464 6.25054 17.3343 6.27637 17.2134 6.32655C17.0924 6.37674 16.9825 6.45028 16.89 6.54299L12 11.423L7.10998 6.53299C7.0174 6.44041 6.90749 6.36697 6.78652 6.31686C6.66556 6.26676 6.53591 6.24097 6.40498 6.24097C6.27405 6.24097 6.1444 6.26676 6.02344 6.31686C5.90247 6.36697 5.79256 6.44041 5.69998 6.53299C5.6074 6.62557 5.53396 6.73548 5.48385 6.85644C5.43375 6.97741 5.40796 7.10706 5.40796 7.23799C5.40796 7.36892 5.43375 7.49857 5.48385 7.61953C5.53396 7.74049 5.6074 7.85041 5.69998 7.94299L10.59 12.833L5.69998 17.723C5.6074 17.8156 5.53396 17.9255 5.48385 18.0464C5.43375 18.1674 5.40796 18.2971 5.40796 18.428C5.40796 18.5589 5.43375 18.6886 5.48385 18.8095C5.53396 18.9305 5.6074 19.0404 5.69998 19.133C5.79256 19.2256 5.90247 19.299 6.02344 19.3491C6.1444 19.3992 6.27405 19.425 6.40498 19.425C6.53591 19.425 6.66556 19.3992 6.78652 19.3491C6.90749 19.299 7.0174 19.2256 7.10998 19.133L12 14.243L16.89 19.133C16.9826 19.2256 17.0925 19.299 17.2134 19.3491C17.3344 19.3992 17.464 19.425 17.595 19.425C17.7259 19.425 17.8556 19.3992 17.9765 19.3491C18.0975 19.299 18.2074 19.2256 18.3 19.133C18.3926 19.0404 18.466 18.9305 18.5161 18.8095C18.5662 18.6886 18.592 18.5589 18.592 18.428C18.592 18.2971 18.5662 18.1674 18.5161 18.0464C18.466 17.9255 18.3926 17.8156 18.3 17.723L13.41 12.833L18.3 7.94299C18.68 7.56299 18.68 6.92299 18.3 6.54299Z" fill="#A0A0A0"/>
</svg>
