<svg width="22" height="30" viewBox="0 0 22 30" fill="none" xmlns="http://www.w3.org/2000/svg">
<path d="M2 1.00024H13.3208C13.5987 1.00024 13.8642 1.11595 14.0534 1.31959L20.7325 8.50852C20.9043 8.69351 20.9999 8.93667 20.9999 9.18917V28.0002C20.9999 28.5525 20.5521 29.0002 19.9999 29.0002H2C1.44772 29.0002 1 28.5525 1 28.0002V2.00024C1 1.44796 1.44771 1.00024 2 1.00024Z" fill="#1A98D3" stroke="#1A98D3"/>
<path d="M13.9691 7.77906L14.2825 1.70634L20.3769 8.28684L15.0688 8.82549C14.459 8.88737 13.9376 8.39115 13.9691 7.77906Z" fill="#1181B6" stroke="#1181B6"/>
<path d="M4 22.0002V17.0002H6.00918C6.39544 17.0002 6.7245 17.0727 6.99637 17.2175C7.26824 17.3608 7.47545 17.5601 7.61802 17.8157C7.76224 18.0696 7.83435 18.3625 7.83435 18.6946C7.83435 19.0266 7.76141 19.3196 7.61553 19.5735C7.46965 19.8274 7.25829 20.0251 6.98145 20.1667C6.70626 20.3083 6.37306 20.3792 5.98183 20.3792H4.70122V19.532H5.80777C6.01498 19.532 6.18573 19.497 6.32001 19.427C6.45594 19.3554 6.55706 19.2569 6.62337 19.1316C6.69134 19.0046 6.72533 18.859 6.72533 18.6946C6.72533 18.5286 6.69134 18.3837 6.62337 18.26C6.55706 18.1347 6.45594 18.0378 6.32001 17.9695C6.18407 17.8995 6.01167 17.8645 5.80279 17.8645H5.0767V22.0002H4Z" fill="white"/>
<path d="M10.339 22.0002H8.53371V17.0002H10.3539C10.8662 17.0002 11.3071 17.1003 11.6768 17.3005C12.0465 17.4991 12.3308 17.7847 12.5297 18.1575C12.7303 18.5302 12.8306 18.9762 12.8306 19.4954C12.8306 20.0162 12.7303 20.4638 12.5297 20.8381C12.3308 21.2125 12.0448 21.4998 11.6718 21.7C11.3005 21.9001 10.8562 22.0002 10.339 22.0002ZM9.61041 21.0945H10.2942C10.6125 21.0945 10.8802 21.0391 11.0974 20.9285C11.3162 20.8162 11.4803 20.6428 11.5898 20.4084C11.7008 20.1724 11.7564 19.8681 11.7564 19.4954C11.7564 19.1259 11.7008 18.824 11.5898 18.5896C11.4803 18.3552 11.3171 18.1827 11.0999 18.072C10.8827 17.9613 10.615 17.906 10.2967 17.906H9.61041V21.0945Z" fill="white"/>
<path d="M13.6282 22.0002V17.0002H17V17.8718H14.7049V19.0632H16.7762V19.9348H14.7049V22.0002H13.6282Z" fill="white"/>
</svg>
