<svg width="34" height="34" viewBox="0 0 34 34" fill="none" xmlns="http://www.w3.org/2000/svg">
<g clip-path="url(#clip0_616_3012)">
<path d="M6.89673 8.21558H24.9926C27.565 8.21558 28.8513 8.21558 29.7529 8.87068C30.0441 9.08225 30.3002 9.33833 30.5118 9.62953C31.1669 10.5312 31.1669 11.8174 31.1669 14.3898V19.2653C31.1669 21.8377 31.1669 23.1239 30.5118 24.0256C30.3002 24.3168 30.0441 24.5729 29.7529 24.7845C28.8513 25.4396 27.565 25.4396 24.9926 25.4396H14.5082C12.214 25.4396 11.0669 25.4396 10.2123 24.8818C9.93501 24.7007 9.68535 24.4805 9.47115 24.2279C8.81116 23.4496 8.66813 22.3114 8.38207 20.0351L6.89673 8.21558Z" stroke="#222628" stroke-width="2.83333"/>
<path d="M1.41675 3.66707C0.634345 3.66707 8.14199e-05 4.30134 8.14199e-05 5.08374C8.14199e-05 5.86614 0.634345 6.50041 1.41675 6.50041V3.66707ZM5.66436 5.63886L6.87914 4.90999L5.66436 5.63886ZM8.89479 8.26941L6.87914 4.90999L4.44958 6.36773L6.46523 9.72715L8.89479 8.26941ZM4.68392 3.66707H1.41675V6.50041H4.68392V3.66707ZM6.87914 4.90999C6.41648 4.13889 5.58317 3.66707 4.68392 3.66707V6.50041C4.58792 6.50041 4.49897 6.45004 4.44958 6.36773L6.87914 4.90999Z" fill="#222628"/>
<circle cx="25.6867" cy="29.3537" r="1.56582" fill="#222628"/>
<circle cx="14.7272" cy="29.3541" r="1.56582" fill="#222628"/>
<line x1="25.0533" y1="15.8952" x2="21.6234" y2="15.8952" stroke="#222628" stroke-width="2.83333" stroke-linecap="round" stroke-linejoin="round"/>
</g>
<defs>
<clipPath id="clip0_616_3012">
<rect width="34" height="34" fill="white"/>
</clipPath>
</defs>
</svg>
