<svg width="28" height="27" viewBox="0 0 28 27" fill="none" xmlns="http://www.w3.org/2000/svg">
<path d="M8.38933 12.5205L6.0531 1.05211H6.01772L3.62829 12.5205H2.74334L0 0H0.74337L3.16817 11.4684H3.20354L5.57524 0H6.47784L8.86727 11.4684H8.90264L11.3274 0H12.0708L9.30975 12.5205H8.38933ZM13.3451 12.5205V0H19.3805V0.666331H14.0885V5.66406H19.0265V6.33038H14.0885V11.8542H19.5398V12.5205H13.3451ZM20.885 12.5205V0H24.2832C26.4897 0 27.593 1.04048 27.593 3.12136C27.593 3.93968 27.3835 4.58853 26.9646 5.06782C26.5458 5.54712 25.9764 5.83352 25.2567 5.92704V5.96217C26.1416 6.02056 26.8201 6.33917 27.2921 6.91783C27.764 7.4965 28 8.23008 28 9.11858C28 10.1707 27.6785 11.0007 27.0354 11.6087C26.3924 12.2165 25.5104 12.5205 24.3894 12.5205H20.885ZM21.6284 5.66406H24.0532C24.9027 5.66406 25.5812 5.4536 26.0885 5.03277C26.5959 4.61186 26.8496 3.97472 26.8496 3.12136C26.8496 1.43797 26.0237 0.596236 24.3717 0.596236H21.6284V5.66406ZM21.6284 11.9243H24.1239C25.1859 11.9243 25.9735 11.7051 26.4867 11.2667C27.0001 10.8283 27.2566 10.1064 27.2566 9.10101C27.2566 7.20717 26.2006 6.26028 24.0885 6.26028H21.6284V11.9243Z" fill="white"/>
<path d="M13.4946 26.9999V15.9165H16.7692C17.5944 15.9165 18.2524 16.1493 18.7433 16.615C19.276 17.1221 19.5424 17.8569 19.5424 18.8193C19.5424 19.5747 19.3492 20.1957 18.9627 20.682C18.5658 21.1995 18.0122 21.4944 17.3019 21.5668V21.598C18.1479 21.6496 18.7381 21.9291 19.0723 22.4362C19.3334 22.8502 19.4641 23.4865 19.4641 24.3455V25.5097C19.4641 26.0996 19.5894 26.5963 19.8401 26.9999H19.088C18.9 26.6481 18.806 26.1462 18.806 25.4942V24.3611C18.806 23.5125 18.6598 22.8967 18.3673 22.5138C18.0226 22.0791 17.422 21.8618 16.5655 21.8618H14.1527V26.9999H13.4946ZM14.1527 21.334H16.2522C18.007 21.334 18.8843 20.4957 18.8843 18.8193C18.8843 18.0742 18.6885 17.4921 18.2968 17.0729C17.9051 16.6538 17.3645 16.4442 16.6752 16.4442H14.1527V21.334ZM26.1228 23.0261L24.1957 16.5684H24.1644L22.1903 23.0261H26.1228ZM27.3137 26.9999L26.2482 23.5538H22.0336L20.9682 26.9999H20.3102L23.7884 15.9165H24.6188L27.9717 26.9999H27.3137Z" fill="white"/>
<mask id="mask0_1704_2373" style="mask-type:luminance" maskUnits="userSpaceOnUse" x="1" y="16" width="10" height="10">
<path d="M8.44627 17.1498C10.7675 18.4377 11.5629 21.2902 10.2227 23.5209C8.8825 25.7517 5.91424 26.516 3.59294 25.228C1.27173 23.9401 0.476353 21.0876 1.81653 18.8569C3.15671 16.6262 6.12497 15.8619 8.44627 17.1498Z" fill="white"/>
</mask>
<g mask="url(#mask0_1704_2373)">
<path fill-rule="evenodd" clip-rule="evenodd" d="M4.08862 25.7071L5.13449 26.2874C5.38718 25.3516 6.03928 24.2078 6.88785 23.6535C7.30154 23.3832 7.93769 22.8321 8.29878 22.5068C8.45277 22.368 8.61909 22.2211 8.75578 22.0748C10.2084 20.5207 9.66286 19.5992 9.95582 17.9186L9.18501 17.4909C9.10987 18.0056 9.04697 18.5112 8.93299 19.0519C8.80914 19.6392 8.77225 20.0991 8.42661 20.6594C8.09836 21.1915 7.69666 21.6815 7.30669 22.1634C7.1077 22.4093 6.39599 23.5815 6.23482 23.576C6.10083 23.418 6.30591 22.9921 6.38392 22.786C6.48987 22.506 6.61288 22.227 6.73192 21.9457C6.96654 21.391 7.19863 20.8066 7.48542 20.2746C7.72933 19.8221 7.91633 19.1429 8.08029 18.6485C8.14681 18.4479 8.32014 18.0018 8.3106 17.8339C8.29684 17.5907 8.32301 17.3268 8.41343 17.0628L7.75381 16.6968C7.52806 17.753 7.49141 17.8639 7.0898 18.8921C6.78916 19.6618 6.4783 20.3921 6.07897 21.1505C5.86436 21.5582 5.63016 21.8683 5.48241 22.3002C5.35332 22.6774 5.26721 23.0287 5.10393 23.4171C4.78446 24.1775 4.39517 24.9439 4.08862 25.7071Z" fill="white"/>
<path fill-rule="evenodd" clip-rule="evenodd" d="M5.64258 26.5689L6.03086 26.7843C6.60538 26.38 6.56393 26.2225 6.9858 25.891C7.14435 25.7663 7.34393 25.6414 7.48307 25.5096C7.98295 25.0358 7.78776 25.0759 8.51062 24.8424L10.2193 24.2945L10.9152 23.1361L10.8755 23.1445C10.8704 23.1458 10.8617 23.1478 10.8562 23.1494L10.4716 23.2938C10.188 23.403 9.26767 23.8317 9.19135 23.4513C9.17345 23.3422 10.8623 22.365 11.1515 21.9224C11.4985 21.391 12.0597 20.5274 12.3617 19.9703C12.5037 19.7085 12.468 19.6048 12.5333 19.3483L11.7397 18.908C11.576 19.4478 11.618 19.5616 11.2207 20.032C11.0892 20.1876 10.9238 20.376 10.822 20.5525C10.3019 21.454 9.65949 22.3422 8.89898 23.0871C8.1041 23.8655 7.09488 24.0555 6.25822 25.3919C6.00908 25.7898 5.77048 26.1274 5.64258 26.5689Z" fill="white"/>
<path fill-rule="evenodd" clip-rule="evenodd" d="M-0.775146 23.0081L0.0345855 23.4573C0.154977 23.0146 0.127873 22.738 0.185283 22.234C0.218209 21.9447 0.16089 22.0726 0.252914 21.6348C0.372124 21.0673 0.558196 20.2886 0.720209 19.7472C0.901304 19.1418 1.06155 17.9196 1.12892 17.2691C1.13998 17.1625 1.12714 17.068 1.13862 16.973C1.16733 16.7366 1.35273 16.3418 1.35645 16.0364C1.36134 15.6334 1.39537 15.2121 1.59107 14.7991C1.78542 14.3889 1.8511 13.9155 2.00965 13.5093L1.54505 13.2515L1.37873 14.2873C1.21782 14.1736 1.21782 13.2691 1.23732 13.0808L0.662043 12.7616C0.637644 13.2764 0.946812 14.0692 0.869225 14.5894C0.839 14.792 0.779734 15.039 0.783026 15.2295C0.797547 16.0479 0.398802 16.9728 0.270896 17.8185C0.20935 18.2251 0.16671 18.7057 0.0638791 19.105C-0.0512781 19.5522 -0.220383 19.9666 -0.311479 20.4222C-0.355634 20.6431 -0.347021 20.8261 -0.403334 21.0614C-0.496793 21.4515 -0.753531 22.1266 -0.738672 22.3732C-0.725586 22.5908 -0.672906 22.7745 -0.775146 23.0081Z" fill="white"/>
<path fill-rule="evenodd" clip-rule="evenodd" d="M2.48364 24.8162L3.43698 25.3451C3.63521 24.7638 3.67211 25.1326 4.02585 24.1151C4.16794 23.7061 4.29196 23.2813 4.40847 22.8713C4.69889 21.85 4.72042 21.5843 4.6338 20.4814C4.61835 20.2846 4.56669 20.1231 4.59919 19.9215C4.67703 19.4394 4.95032 18.5455 5.09291 18.0659C5.21575 17.6525 5.34712 17.2366 5.48009 16.8199C5.62235 16.3742 5.65114 16.014 5.7549 15.5873L5.13943 15.2458C5.05019 15.63 4.98949 16.0289 4.90152 16.4171C4.85103 16.6401 4.88092 16.7773 4.83541 16.9985C4.7108 17.6043 4.48125 18.2289 4.27668 18.8086C4.14093 19.1933 4.04519 19.6183 3.947 20.0082C3.81319 20.5393 3.83429 21.1902 3.70005 21.7425C3.44061 22.8098 3.03199 23.8446 2.48364 24.8162Z" fill="white"/>
<path fill-rule="evenodd" clip-rule="evenodd" d="M0.817871 23.892L1.90848 24.4972C2.54962 23.5944 2.57656 23.0601 2.82561 22.0926C2.96086 21.5671 3.31039 20.2079 3.3797 19.7326C3.55227 18.5498 3.8226 18.3404 4.15363 17.3305C4.33118 16.789 4.42751 16.1407 4.54377 15.5707C4.58176 15.3846 4.6027 15.151 4.65242 14.9758L4.05274 14.6431C3.73015 15.8105 3.59026 16.8862 3.23237 18.0948C3.0886 18.5805 2.71653 19.4315 2.66132 19.8507C2.63034 20.0856 2.68344 20.1433 2.59378 20.4154C2.52717 20.6174 2.45228 20.8036 2.38144 21.0031C2.30706 21.2124 2.29601 21.3925 2.22838 21.5833C1.68645 23.1108 1.29606 23.0496 0.817871 23.892Z" fill="white"/>
<path fill-rule="evenodd" clip-rule="evenodd" d="M3.35155 14.254L2.64643 13.8628C2.54241 14.2005 2.485 14.6227 2.3972 14.974C2.30779 15.3318 2.15853 15.765 2.13354 16.1066C2.1137 16.3774 2.11555 16.9688 2.02741 17.1907C1.87739 17.5684 1.79837 17.9524 1.71065 18.3299C1.5358 19.0828 1.42909 19.8423 1.09054 20.592C0.906405 20.9999 0.665955 22.5196 0.89475 22.7736C1.27914 22.8311 1.34525 22.1119 1.41212 21.8698C1.62842 21.0874 2.01238 20.4536 2.11614 19.6826C2.15971 19.3587 2.20082 18.9086 2.31176 18.5979C2.4465 18.2209 2.54014 17.8939 2.61857 17.5159L2.8162 16.4329C2.91059 16.066 3.0439 15.707 3.15518 15.3416C3.28274 14.9223 3.28646 14.6488 3.35155 14.254Z" fill="white"/>
<path fill-rule="evenodd" clip-rule="evenodd" d="M7.03858 16.2995L6.37179 15.9296C6.28627 16.3773 6.29023 16.7497 6.1457 17.2253C6.05983 17.5078 5.77346 18.123 5.61989 18.5904C5.45399 19.0952 4.8061 20.919 5.26386 21.1638C5.46539 21.1274 5.5017 20.8306 5.53808 20.6567C5.62833 20.2258 5.88212 19.8222 6.07064 19.3977C6.1809 19.1496 6.19356 19.0128 6.2622 18.779C6.38445 18.3621 6.54284 17.9549 6.68873 17.5413C6.83622 17.1229 6.9122 16.7107 7.03858 16.2995Z" fill="white"/>
<path fill-rule="evenodd" clip-rule="evenodd" d="M6.71582 27.1642L7.59621 27.6527C7.8169 27.3795 8.23633 27.0693 8.53579 27.0971L9.54384 25.4193C9.37955 25.408 8.94594 25.5592 8.7526 25.6416C8.513 25.7438 8.27508 25.866 8.03666 26.0197C7.67321 26.2543 6.96386 26.7697 6.71582 27.1642Z" fill="white"/>
</g>
</svg>
