<svg width="26" height="26" viewBox="0 0 26 26" fill="none" xmlns="http://www.w3.org/2000/svg">
<path d="M12.7147 0.416016C10.2001 0.416016 7.74207 1.16166 5.65132 2.55866C3.56057 3.95565 1.93102 5.94126 0.968754 8.26438C0.0064866 10.5875 -0.245288 13.1438 0.245271 15.61C0.735831 18.0762 1.94669 20.3416 3.72473 22.1196C5.50277 23.8977 7.76813 25.1085 10.2343 25.5991C12.7006 26.0896 15.2568 25.8379 17.58 24.8756C19.9031 23.9133 21.8887 22.2838 23.2857 20.193C24.6827 18.1023 25.4283 15.6442 25.4283 13.1297C25.4283 9.75781 24.0889 6.52404 21.7046 4.13976C19.3203 1.75549 16.0865 0.416016 12.7147 0.416016V0.416016ZM20.492 18.6259C20.0225 19.619 19.2341 20.4263 18.2524 20.9193C17.9905 21.0458 17.7023 21.1086 17.4114 21.1026C16.0702 21.0697 14.7522 20.746 13.5484 20.154C10.2846 18.6096 7.61583 16.0396 5.94952 12.8363C5.3605 11.7506 4.9744 10.5667 4.81017 9.34248C4.81156 9.17646 4.78596 9.01131 4.73438 8.85349V8.14935C4.81751 7.96843 4.83707 7.7655 4.92264 7.58457C5.33335 6.7849 5.95041 6.1096 6.70989 5.62862C7.02298 5.42432 7.36389 5.26622 7.7221 5.15919H8.06438C8.69273 5.38168 9.13527 5.85111 9.56069 6.32787C10.1359 6.96504 10.6461 7.65794 11.0839 8.39629C11.2275 8.64239 11.3486 8.90098 11.4457 9.16889C11.5185 9.34163 11.537 9.53246 11.4985 9.71593C11.4601 9.8994 11.3666 10.0668 11.2306 10.1958C11.0349 10.3959 10.8157 10.5716 10.5778 10.719C10.2037 10.9635 9.8174 11.1835 9.45555 11.4525C9.0937 11.7214 9.05948 11.7679 9.26974 12.1859C9.67144 12.9594 10.1783 13.6736 10.7758 14.3081C11.5838 15.2162 12.5445 15.9759 13.6144 16.5526C13.7097 16.5933 13.8027 16.639 13.8931 16.6895C14.0398 16.7873 14.1376 16.7262 14.2379 16.6137C14.3984 16.4235 14.5447 16.2216 14.6755 16.0098C14.9163 15.5928 15.185 15.1925 15.4799 14.8118C15.5714 14.6822 15.6893 14.5734 15.8258 14.4925C15.9623 14.4116 16.1144 14.3605 16.272 14.3424C16.5304 14.3427 16.7838 14.4128 17.0055 14.5453C18.2537 15.1745 19.3706 16.0358 20.2964 17.0832C20.3996 17.2063 20.4897 17.3399 20.5653 17.4817C20.7854 17.8704 20.6778 18.2641 20.492 18.6259Z" fill="white"/>
</svg>
