<svg width="54" height="55" viewBox="0 0 54 55" fill="none" xmlns="http://www.w3.org/2000/svg">
<path d="M24.293 4.71371C25.8209 3.47322 28.0091 3.47322 29.5371 4.71371L33.677 8.07475C34.3041 8.5839 35.0659 8.89944 35.8694 8.98287L41.1733 9.5336C43.1309 9.73686 44.6782 11.2841 44.8814 13.2417L45.4322 18.5457C45.5156 19.3491 45.8311 20.1109 46.3403 20.7381L49.7013 24.878C50.9418 26.4059 50.9418 28.5941 49.7013 30.122L46.3403 34.2619C45.8311 34.8891 45.5156 35.6509 45.4322 36.4543L44.8814 41.7583C44.6782 43.7159 43.1309 45.2631 41.1733 45.4664L35.8694 46.0171C35.0659 46.1006 34.3041 46.4161 33.677 46.9253L29.5371 50.2863C28.0091 51.5268 25.8209 51.5268 24.293 50.2863L20.1531 46.9253C19.526 46.4161 18.7642 46.1006 17.9607 46.0171L12.6568 45.4664C10.6992 45.2631 9.1519 43.7159 8.94864 41.7583L8.39791 36.4543C8.31448 35.6509 7.99893 34.8891 7.48979 34.2619L4.12875 30.122C2.88826 28.5941 2.88826 26.4059 4.12875 24.878L7.48979 20.7381C7.99894 20.1109 8.31448 19.3491 8.39791 18.5457L8.94864 13.2417C9.1519 11.2841 10.6992 9.73686 12.6568 9.5336L17.9607 8.98287C18.7642 8.89944 19.526 8.5839 20.1531 8.07475L24.293 4.71371Z" stroke="#1A98D3" stroke-width="3.64"/>
<path d="M19.4404 34.9746L34.3895 20.0255" stroke="#1A98D3" stroke-width="3.64" stroke-linecap="round" stroke-linejoin="round"/>
<path d="M34.3672 34.9744H34.4129" stroke="#1A98D3" stroke-width="4.16" stroke-linecap="round" stroke-linejoin="round"/>
<path d="M19.4181 20.0253H19.4629" stroke="#1A98D3" stroke-width="4.16" stroke-linecap="round" stroke-linejoin="round"/>
</svg>
