<svg width="25" height="25" viewBox="0 0 25 25" fill="none" xmlns="http://www.w3.org/2000/svg">
<circle cx="12.5" cy="12.5" r="12.5" fill="white"/>
<path fill-rule="evenodd" clip-rule="evenodd" d="M8.83625 5.40559C8.89552 5.3061 9.04513 5.17174 9.16878 5.10705C9.39054 4.99103 9.42858 4.98965 11.9208 5.00987C14.7115 5.03252 14.7494 5.03661 15.5097 5.40134C16.4425 5.84888 17.1382 6.54237 17.5625 7.44762C17.9045 8.17708 18.0018 8.6144 18 9.41308C17.9961 11.1133 17.1321 12.56 15.6717 13.3112C14.8103 13.7544 14.6454 13.7774 12.338 13.7774H10.3247V14.7166V15.6558H12.1358C13.8538 15.6558 13.9578 15.6616 14.1596 15.7685C14.4728 15.9344 14.5914 16.163 14.5673 16.5541C14.5504 16.827 14.5219 16.9 14.3672 17.0657C14.2679 17.172 14.1019 17.2835 13.9981 17.3134C13.8922 17.344 13.0465 17.3679 12.0671 17.368L10.3247 17.3684V18.3369C10.3247 19.411 10.2912 19.5687 10.0112 19.8134C9.66071 20.1195 9.11957 20.0395 8.86014 19.6431C8.73181 19.447 8.72857 19.4167 8.72857 18.4113V17.3806L8.15662 17.3594C7.70773 17.3427 7.54668 17.3146 7.40809 17.2289C6.89961 16.9146 6.87594 16.1766 7.36228 15.7997C7.49007 15.7006 7.60239 15.6806 8.12166 15.6648L8.73112 15.6462L8.71654 14.7256L8.70196 13.8051L8.10698 13.7774C7.46752 13.7478 7.34552 13.6983 7.11216 13.3737C6.94819 13.1457 6.96628 12.7367 7.15153 12.4844C7.37983 12.1737 7.52923 12.1201 8.16726 12.1201H8.72857V8.85333C8.72857 5.66983 8.73133 5.58199 8.83625 5.40559ZM15.619 7.50662C15.2569 7.13057 14.9022 6.91406 14.4462 6.79076C14.1931 6.72231 13.768 6.70606 12.2289 6.70606H10.3247V9.41308V12.1201L12.147 12.1192C13.524 12.1184 14.0572 12.0988 14.3294 12.0389C16.0112 11.6688 16.8935 9.69643 16.0828 8.11896C16.0036 7.96477 15.7949 7.68921 15.619 7.50662Z" fill="#3EA9DA"/>
</svg>
