<svg width="26" height="26" viewBox="0 0 26 26" fill="none" xmlns="http://www.w3.org/2000/svg">
<path d="M19.3921 12.4583C19.3793 12.0401 19.2967 11.6269 19.1478 11.2359C19.1369 11.1659 19.1223 11.0965 19.1039 11.0281C18.6702 9.68387 17.8133 8.51643 16.6615 7.7005C16.0741 7.26085 15.4048 6.9433 14.693 6.76653C14.3023 6.61934 13.8892 6.54076 13.4718 6.53426C13.068 6.46091 12.6544 6.46091 12.2506 6.53426C11.8328 6.54686 11.42 6.6295 11.0294 6.77876C10.1117 7.01425 9.26506 7.46991 8.56267 8.10636C7.59048 8.9236 6.89298 10.0205 6.56482 11.2481C6.41482 11.6388 6.33223 12.0522 6.32058 12.4706C6.24731 12.8748 6.24731 13.2889 6.32058 13.693C6.32678 14.1109 6.40529 14.5245 6.55261 14.9155C6.75082 15.7068 7.11924 16.4453 7.63213 17.0793C8.46989 18.2065 9.66228 19.0186 11.0172 19.3849C11.4078 19.5339 11.8206 19.6165 12.2384 19.6293C12.6422 19.7027 13.0558 19.7027 13.4596 19.6293C13.8785 19.6267 14.293 19.5437 14.6808 19.3849C14.765 19.3959 14.8506 19.3796 14.925 19.3384C15.9358 19.0119 16.8492 18.4379 17.5823 17.6685C18.342 16.9098 18.8858 15.962 19.1576 14.9228C19.3079 14.5322 19.3905 14.1188 19.4018 13.7004C19.4743 13.2892 19.471 12.8683 19.3921 12.4583ZM14.0189 11.2359C13.9932 11.643 13.9932 12.0513 14.0189 12.4583C13.9931 12.8654 13.9931 13.2737 14.0189 13.6808C13.9933 13.8161 13.9274 13.9405 13.8297 14.0374C13.732 14.1343 13.6072 14.1992 13.4718 14.2236C13.0652 14.1966 12.6572 14.1966 12.2506 14.2236C11.8441 14.1931 11.4359 14.1931 11.0294 14.2236C10.624 14.1698 10.2137 14.2456 9.80826 14.1722C9.64462 14.0402 9.45657 13.9278 9.4468 13.6833C9.45308 13.5624 9.4906 13.4452 9.55567 13.3432C9.62074 13.2412 9.71114 13.1579 9.81803 13.1014L11.0392 13.0598H12.2604C12.9931 13.072 12.8734 13.1992 12.8588 12.4632V10.0183C12.9149 9.61489 12.8026 9.19925 12.9418 8.79583C13.006 8.71368 13.0873 8.64658 13.1801 8.59928C13.273 8.55197 13.375 8.52559 13.4791 8.522C13.6622 8.55441 13.8267 8.65374 13.9407 8.80072C14.0873 9.1968 13.9676 9.61244 14.0286 10.0232C13.9969 10.4267 13.9929 10.8318 14.0164 11.2359H14.0189Z" fill="white"/>
<path d="M12.8633 0.355957C10.3515 0.355957 7.89599 1.1016 5.80745 2.4986C3.71891 3.89559 2.09109 5.8812 1.12984 8.20432C0.168585 10.5274 -0.0829167 13.0837 0.407124 15.5499C0.897166 18.0162 2.10674 20.2815 3.8829 22.0596C5.65906 23.8376 7.92203 25.0485 10.3856 25.539C12.8492 26.0296 15.4028 25.7778 17.7235 24.8155C20.0442 23.8533 22.0277 22.2237 23.4232 20.133C24.8187 18.0422 25.5636 15.5842 25.5636 13.0696C25.5636 9.69775 24.2255 6.46398 21.8437 4.07971C19.462 1.69543 16.2316 0.355957 12.8633 0.355957ZM20.801 11.7249C20.7839 11.6858 20.7423 11.6589 20.7155 11.6907C20.6993 11.714 20.692 11.7422 20.6946 11.7704C20.6973 11.7986 20.7099 11.8249 20.7301 11.8447C20.7301 11.9523 20.6935 12.0697 20.801 12.1528V14.0476C20.7375 14.0623 20.7399 14.1161 20.7326 14.165C20.6274 14.8338 20.4514 15.4894 20.2075 16.1209C19.995 16.5292 19.7849 16.9326 19.5773 17.3434C19.2517 17.7541 18.9261 18.1616 18.6004 18.5658C18.5036 18.6304 18.4206 18.7135 18.3562 18.8103C17.9491 19.1363 17.542 19.4623 17.135 19.7883L15.9138 20.4191C15.2801 20.6576 14.6261 20.8384 13.9599 20.9594C13.8745 20.9594 13.7743 20.9057 13.7157 21.0157H11.8864C11.7887 20.8885 11.6421 20.9325 11.5151 20.913C10.9643 20.7953 10.4218 20.6418 9.89097 20.4533L8.59409 19.7859L7.37291 18.8079C7.28987 18.7272 7.20927 18.6441 7.12868 18.5634L6.15174 17.3409L5.51917 16.1185C5.28358 15.505 5.11012 14.8694 5.00139 14.2212C5.00139 14.1576 5.01848 14.0721 4.92323 14.0427V12.0917C4.94521 12.0721 4.97941 12.055 4.98185 12.033C5.08431 11.3707 5.25286 10.7203 5.48498 10.0917L6.15174 8.79343L7.12868 7.57097L7.37291 7.32647L8.59409 6.3485L9.89097 5.68103C10.3453 5.53922 10.7922 5.37786 11.2611 5.27762C11.4781 5.27084 11.6911 5.21836 11.8864 5.12358H13.7181C13.7792 5.23116 13.8793 5.17493 13.9624 5.17982C14.6284 5.30032 15.2823 5.48033 15.9163 5.7177L17.1374 6.3485L18.3586 7.32647C18.4417 7.4096 18.5247 7.49028 18.6028 7.57097L19.5798 8.79343C19.7882 9.19929 19.9982 9.60678 20.2099 10.0159C20.3925 10.505 20.5426 11.0057 20.6593 11.5146C20.6715 11.5709 20.6593 11.7591 20.8034 11.6051L20.801 11.7249Z" fill="white"/>
</svg>
