<svg width="182" height="49" viewBox="0 0 182 49" fill="none" xmlns="http://www.w3.org/2000/svg">
<path d="M64.4222 8.32284V43.6136H61.8628V8.32284H56.7441V5.80078H69.5408V8.32284H64.4222Z" fill="#3A3A3A"/>
<path d="M84.879 20.9148V18.3927C84.879 16.7174 84.0198 15.8707 82.3197 15.8707H75.9213V13.3486H82.3197C85.7382 13.3486 87.4383 15.0239 87.4383 18.3927V43.5954H79.7604C76.3418 43.5954 74.6416 41.9199 74.6416 38.5512V25.9409C74.6416 22.5721 76.3418 20.8968 79.7604 20.8968H84.879V20.9148ZM84.879 23.4369H79.7604C78.0601 23.4369 77.2009 24.2836 77.2009 25.9589V38.5692C77.2009 40.2446 78.0601 41.0913 79.7604 41.0913H84.879V23.4369Z" fill="#3A3A3A"/>
<path d="M92.5566 18.4111C92.5566 15.0424 94.2567 13.3669 97.6753 13.3669H100.235C103.653 13.3669 105.353 15.0424 105.353 18.4111V23.4552H102.794V18.4111C102.794 16.7357 101.935 15.8891 100.235 15.8891H97.6753C95.9752 15.8891 95.116 16.7357 95.116 18.4111V38.5696C95.116 40.2449 95.9752 41.0916 97.6753 41.0916H100.235C101.935 41.0916 102.794 40.2449 102.794 38.5696V33.5254H105.353V38.5696C105.353 41.9384 103.653 43.6137 100.235 43.6137H97.6753C94.2567 43.6137 92.5566 41.9384 92.5566 38.5696V18.4111Z" fill="#3A3A3A"/>
<path d="M113.012 15.889V43.6136H110.453V5.80078H113.012V13.367H118.131C121.55 13.367 123.249 15.0423 123.249 18.4111V43.6136H120.69V18.4111C120.69 16.7357 119.831 15.889 118.131 15.889H113.012Z" fill="#3A3A3A"/>
<path d="M128.369 5.80078H130.928V41.0916H141.166V43.6136H128.369V5.80078Z" fill="#3A3A3A"/>
<path d="M156.504 20.9148V18.3927C156.504 16.7174 155.645 15.8707 153.944 15.8707H147.546V13.3486H153.944C157.362 13.3486 159.063 15.0239 159.063 18.3927V43.5954H151.385C147.966 43.5954 146.267 41.9199 146.267 38.5512V25.9409C146.267 22.5721 147.966 20.8968 151.385 20.8968H156.504V20.9148ZM156.504 23.4369H151.385C149.685 23.4369 148.826 24.2836 148.826 25.9589V38.5692C148.826 40.2446 149.685 41.0913 151.385 41.0913H156.504V23.4369Z" fill="#3A3A3A"/>
<path d="M164.182 43.6136V5.80078H166.741V13.367H171.86C175.279 13.367 176.978 15.0423 176.978 18.4111V38.5695C176.978 41.9383 175.279 43.6136 171.86 43.6136H164.182ZM166.741 15.889V41.0916H171.86C173.56 41.0916 174.419 40.2448 174.419 38.5695V18.4111C174.419 16.7357 173.56 15.889 171.86 15.889H166.741Z" fill="#3A3A3A"/>
<path d="M34.8068 13.583H16.2881V15.6186H34.8068V13.583Z" fill="#1D88D8"/>
<path d="M24.5146 14.5918V44.6943H26.5803V14.5918H24.5146Z" fill="#1D88D8"/>
<path d="M45.8305 4.71973H5.26489V44.6943H22.4308V42.5326H7.45861V6.8815H43.6366V36.7679H45.8305V4.71973Z" fill="#3A3A3A"/>
<path d="M43.6366 42.5327H24.5146V44.6945H45.8303V38.8037H43.6366V42.5327Z" fill="#1D88D8"/>
</svg>
