<svg width="224" height="60" viewBox="0 0 224 60" fill="none" xmlns="http://www.w3.org/2000/svg">
<path d="M79.2888 10.1914V53.4045H76.1387V10.1914H69.8389V7.10315H85.5886V10.1914H79.2888Z" fill="white"/>
<path d="M104.466 25.6106V22.5222C104.466 20.4708 103.409 19.434 101.316 19.434H93.4412V16.3458H101.316C105.524 16.3458 107.616 18.3972 107.616 22.5222V53.3826H98.1662C93.9588 53.3826 91.8662 51.3311 91.8662 47.2061V31.7649C91.8662 27.6399 93.9588 25.5885 98.1662 25.5885H104.466V25.6106ZM104.466 28.6988H98.1662C96.0736 28.6988 95.0161 29.7356 95.0161 31.787V47.2281C95.0161 49.2797 96.0736 50.3165 98.1662 50.3165H104.466V28.6988Z" fill="white"/>
<path d="M113.916 22.5442C113.916 18.4192 116.008 16.3677 120.216 16.3677H123.366C127.573 16.3677 129.666 18.4192 129.666 22.5442V28.7206H126.516V22.5442C126.516 20.4927 125.458 19.456 123.366 19.456H120.216C118.123 19.456 117.066 20.4927 117.066 22.5442V47.2281C117.066 49.2795 118.123 50.3163 120.216 50.3163H123.366C125.458 50.3163 126.516 49.2795 126.516 47.2281V41.0515H129.666V47.2281C129.666 51.3531 127.573 53.4045 123.366 53.4045H120.216C116.008 53.4045 113.916 51.3531 113.916 47.2281V22.5442Z" fill="white"/>
<path d="M139.093 19.456V53.4044H135.943V7.10303H139.093V16.3678H145.393C149.601 16.3678 151.692 18.4192 151.692 22.5442V53.4044H148.543V22.5442C148.543 20.4928 147.486 19.456 145.393 19.456H139.093Z" fill="white"/>
<path d="M157.992 7.10303H161.142V50.3162H173.742V53.4044H157.992V7.10303Z" fill="white"/>
<path d="M192.62 25.6106V22.5222C192.62 20.4708 191.562 19.434 189.469 19.434H181.594V16.3458H189.469C193.677 16.3458 195.77 18.3972 195.77 22.5222V53.3826H186.319C182.112 53.3826 180.02 51.3311 180.02 47.2061V31.7649C180.02 27.6399 182.112 25.5885 186.319 25.5885H192.62V25.6106ZM192.62 28.6988H186.319C184.228 28.6988 183.17 29.7356 183.17 31.787V47.2281C183.17 49.2797 184.228 50.3165 186.319 50.3165H192.62V28.6988Z" fill="white"/>
<path d="M202.069 53.4045V7.10315H205.219V16.3679H211.519C215.727 16.3679 217.819 18.4193 217.819 22.5443V47.2281C217.819 51.3531 215.727 53.4045 211.519 53.4045H202.069ZM205.219 19.4561V50.3163H211.519C213.611 50.3163 214.669 49.2795 214.669 47.2281V22.5443C214.669 20.4929 213.611 19.4561 211.519 19.4561H205.219Z" fill="white"/>
<path d="M42.8392 16.6323H20.0469V19.1249H42.8392V16.6323Z" fill="#1D88D8"/>
<path d="M30.1719 17.8669V54.7272H32.7143V17.8669H30.1719Z" fill="#1D88D8"/>
<path d="M56.4063 5.7793H6.47949V54.7278H27.6068V52.0808H9.17945V8.42636H53.7062V45.0219H56.4063V5.7793Z" fill="white"/>
<path d="M53.7066 52.0809H30.1719V54.728H56.4065V47.5148H53.7066V52.0809Z" fill="#1D88D8"/>
</svg>
